<?xml version="1.0" encoding="UTF-8"?>
<svg width="80" height="80" viewBox="0 0 80 80" fill="none" xmlns="http://www.w3.org/2000/svg">
  <rect width="80" height="80" rx="40" fill="#F5F7FA"/>
  <path d="M56 52H24C22.8954 52 22 51.1046 22 50V30C22 28.8954 22.8954 28 24 28H56C57.1046 28 58 28.8954 58 30V50C58 51.1046 57.1046 52 56 52Z" stroke="#3B82F6" stroke-width="2" stroke-linecap="round" stroke-linejoin="round"/>
  <path d="M30 36C30 36 35 40 40 40C45 40 50 36 50 36" stroke="#3B82F6" stroke-width="2" stroke-linecap="round" stroke-linejoin="round"/>
  <circle cx="40" cy="40" r="4" fill="#3B82F6"/>
  <circle cx="30" cy="46" r="4" stroke="#3B82F6" stroke-width="2" stroke-linecap="round" stroke-linejoin="round"/>
  <circle cx="50" cy="46" r="4" stroke="#3B82F6" stroke-width="2" stroke-linecap="round" stroke-linejoin="round"/>
  <path d="M24 32H56" stroke="#3B82F6" stroke-width="2" stroke-linecap="round" stroke-linejoin="round"/>
</svg>
