<?xml version="1.0" encoding="UTF-8"?>
<svg width="80" height="80" viewBox="0 0 80 80" fill="none" xmlns="http://www.w3.org/2000/svg">
  <rect width="80" height="80" rx="40" fill="#F5F7FA"/>
  <path d="M40 26C42.7614 26 45 23.7614 45 21C45 18.2386 42.7614 16 40 16C37.2386 16 35 18.2386 35 21C35 23.7614 37.2386 26 40 26Z" fill="#3B82F6"/>
  <path d="M46 46H34C33.4477 46 33 45.5523 33 45V31C33 30.4477 33.4477 30 34 30H46C46.5523 30 47 30.4477 47 31V45C47 45.5523 46.5523 46 46 46Z" fill="#3B82F6" fill-opacity="0.6"/>
  <path d="M52 64H28C27.4477 64 27 63.5523 27 63V47C27 46.4477 27.4477 46 28 46H52C52.5523 46 53 46.4477 53 47V63C53 63.5523 52.5523 64 52 64Z" fill="#3B82F6" fill-opacity="0.4"/>
</svg>
