<?xml version="1.0" encoding="UTF-8"?>
<svg width="80" height="80" viewBox="0 0 80 80" fill="none" xmlns="http://www.w3.org/2000/svg">
  <rect width="80" height="80" rx="40" fill="#F5F7FA"/>
  <path d="M40 26C42.7614 26 45 23.7614 45 21C45 18.2386 42.7614 16 40 16C37.2386 16 35 18.2386 35 21C35 23.7614 37.2386 26 40 26Z" fill="#3B82F6"/>
  <path d="M48 46H32C31.4477 46 31 45.5523 31 45V31C31 30.4477 31.4477 30 32 30H48C48.5523 30 49 30.4477 49 31V45C49 45.5523 48.5523 46 48 46Z" fill="#3B82F6" fill-opacity="0.6"/>
  <path d="M48 64H32C31.4477 64 31 63.5523 31 63V47C31 46.4477 31.4477 46 32 46H48C48.5523 46 49 46.4477 49 47V63C49 63.5523 48.5523 64 48 64Z" fill="#3B82F6" fill-opacity="0.4"/>
</svg>
