<?xml version="1.0" encoding="UTF-8"?>
<svg width="80" height="80" viewBox="0 0 80 80" fill="none" xmlns="http://www.w3.org/2000/svg">
  <rect width="80" height="80" rx="40" fill="#F5F7FA"/>
  <path d="M40 20C40 20 30 30 30 40C30 45.5228 34.4772 50 40 50C45.5228 50 50 45.5228 50 40C50 30 40 20 40 20Z" fill="#FF4A4A" fill-opacity="0.7"/>
  <path d="M40 20C40 20 30 30 30 40C30 45.5228 34.4772 50 40 50C45.5228 50 50 45.5228 50 40C50 30 40 20 40 20Z" stroke="#FF4A4A" stroke-width="2" stroke-linecap="round" stroke-linejoin="round"/>
  <path d="M40 60V50" stroke="#FF4A4A" stroke-width="2" stroke-linecap="round" stroke-linejoin="round"/>
  <path d="M30 50L35 55" stroke="#FF4A4A" stroke-width="2" stroke-linecap="round" stroke-linejoin="round"/>
  <path d="M50 50L45 55" stroke="#FF4A4A" stroke-width="2" stroke-linecap="round" stroke-linejoin="round"/>
</svg>
