<?xml version="1.0" encoding="UTF-8"?>
<svg width="80" height="80" viewBox="0 0 80 80" fill="none" xmlns="http://www.w3.org/2000/svg">
  <rect width="80" height="80" rx="40" fill="#F5F7FA"/>
  <path d="M40 26C42.7614 26 45 23.7614 45 21C45 18.2386 42.7614 16 40 16C37.2386 16 35 18.2386 35 21C35 23.7614 37.2386 26 40 26Z" fill="#3B82F6"/>
  <path d="M48 46H32C31.4477 46 31 45.5523 31 45V31C31 30.4477 31.4477 30 32 30H48C48.5523 30 49 30.4477 49 31V45C49 45.5523 48.5523 46 48 46Z" fill="#3B82F6" fill-opacity="0.6"/>
  <path d="M46 64H34C33.4477 64 33 63.5523 33 63V47C33 46.4477 33.4477 46 34 46H46C46.5523 46 47 46.4477 47 47V63C47 63.5523 46.5523 64 46 64Z" fill="#3B82F6" fill-opacity="0.4"/>
  <circle cx="40" cy="46" r="8" fill="#FF4A4A" fill-opacity="0.7"/>
</svg>
