<?xml version="1.0" encoding="UTF-8"?>
<svg width="80" height="80" viewBox="0 0 80 80" fill="none" xmlns="http://www.w3.org/2000/svg">
  <rect width="80" height="80" rx="40" fill="#F5F7FA"/>
  <path d="M56 52H24C22.8954 52 22 51.1046 22 50V30C22 28.8954 22.8954 28 24 28H56C57.1046 28 58 28.8954 58 30V50C58 51.1046 57.1046 52 56 52Z" stroke="#3B82F6" stroke-width="2" stroke-linecap="round" stroke-linejoin="round"/>
  <path d="M40 28V52" stroke="#3B82F6" stroke-width="2" stroke-linecap="round" stroke-linejoin="round"/>
  <path d="M31 40C33.2091 40 35 38.2091 35 36C35 33.7909 33.2091 32 31 32C28.7909 32 27 33.7909 27 36C27 38.2091 28.7909 40 31 40Z" fill="#3B82F6"/>
  <path d="M31 48C33.7614 48 36 45.7614 36 43C36 40.2386 33.7614 38 31 38C28.2386 38 26 40.2386 26 43C26 45.7614 28.2386 48 31 48Z" fill="#3B82F6" fill-opacity="0.6"/>
</svg>
